<svg width="53" height="53" viewBox="0 0 53 53" fill="none" xmlns="http://www.w3.org/2000/svg">
<g clip-path="url(#clip0_1_1552)">
<path d="M46.3333 26.5C46.3333 15.4543 37.379 6.5 26.3333 6.5C15.2876 6.5 6.33331 15.4543 6.33331 26.5C6.33331 36.4826 13.647 44.7566 23.2083 46.2569V32.2812H18.1302V26.5H23.2083V22.0938C23.2083 17.0812 26.1942 14.3125 30.7626 14.3125C32.9508 14.3125 35.2396 14.7031 35.2396 14.7031V19.625H32.7176C30.2331 19.625 29.4583 21.1667 29.4583 22.7483V26.5H35.0052L34.1185 32.2812H29.4583V46.2569C39.0196 44.7566 46.3333 36.4826 46.3333 26.5Z" fill="white"/>
<path d="M34.1185 32.2812L35.0052 26.5H29.4583V22.7483C29.4583 21.1667 30.2331 19.625 32.7176 19.625H35.2396V14.7031C35.2396 14.7031 32.9508 14.3125 30.7626 14.3125C26.1942 14.3125 23.2083 17.0812 23.2083 22.0938V26.5H18.1302V32.2812H23.2083V46.2569C25.279 46.581 27.3876 46.581 29.4583 46.2569V32.2812H34.1185Z" fill="black"/>
</g>
<rect x="0.833313" y="1" width="51" height="51" rx="9.5" stroke="white"/>
<defs>
<clipPath id="clip0_1_1552">
<rect width="40" height="40" fill="white" transform="translate(6.33331 6.5)"/>
</clipPath>
</defs>
</svg>
