<svg width="55" height="55" viewBox="0 0 55 55" fill="none" xmlns="http://www.w3.org/2000/svg">
<g clip-path="url(#clip0_1_1556)">
<path d="M42.4522 42.2863H36.2291V32.5405C36.2291 30.2165 36.1876 27.2248 32.9924 27.2248C29.7513 27.2248 29.2554 29.7569 29.2554 32.3713V42.2856H23.0323V22.2443H29.0064V24.9831H29.0901C30.3082 22.9003 32.5732 21.6563 34.9845 21.7458C41.2918 21.7458 42.4548 25.8946 42.4548 31.2919L42.4522 42.2863ZM16.0106 19.5048C14.0161 19.5051 12.3989 17.8885 12.3986 15.894C12.3982 13.8995 14.0148 12.2823 16.0093 12.2819C18.0037 12.2816 19.6209 13.8982 19.6212 15.8927C19.6214 16.8505 19.2411 17.7692 18.564 18.4465C17.8868 19.1239 16.9683 19.5046 16.0106 19.5048ZM19.1221 42.2863H12.8925V22.2443H19.1221V42.2863ZM45.5547 6.50277H9.76543C8.07395 6.48368 6.68684 7.83861 6.6662 9.5301V45.4686C6.68614 47.1609 8.07313 48.5171 9.76543 48.4994H45.5547C47.2503 48.5204 48.6427 47.1642 48.6662 45.4686V9.52751C48.642 7.83268 47.2495 6.47782 45.5547 6.4999" fill="#FFF5F5"/>
</g>
<rect x="1.16663" y="1" width="53" height="53" rx="9.5" stroke="white"/>
<defs>
<clipPath id="clip0_1_1556">
<rect width="42" height="42" fill="white" transform="translate(6.66663 6.5)"/>
</clipPath>
</defs>
</svg>
