<svg width="52" height="53" viewBox="0 0 52 53" fill="none" xmlns="http://www.w3.org/2000/svg">
<path d="M44.5684 14.9488C43.2016 15.556 41.7332 15.9644 40.192 16.1488C41.766 15.206 42.9728 13.7136 43.5412 11.934C42.07 12.8068 40.4392 13.4408 38.702 13.7836C37.3124 12.3024 35.3328 11.3768 33.1416 11.3768C28.2984 11.312 24.5748 16.0436 25.7208 20.7308C19.3892 20.4136 13.776 17.38 10.0168 12.7692C7.96521 16.1148 9.13001 20.8992 12.3752 22.9416C11.1268 22.9016 9.95121 22.5588 8.92441 21.9888C8.87681 25.7108 11.5172 28.8532 15.036 29.5544C13.9548 29.856 12.7092 29.9032 11.5952 29.6856C12.5652 32.712 15.3788 34.916 18.7124 34.9772C15.6984 37.3856 11.4788 38.6412 7.43201 38.1324C23.7048 48.1472 41.694 35.0264 40.7652 18.892C42.2544 17.8168 43.5472 16.4756 44.5684 14.9488Z" fill="white"/>
<rect x="0.5" y="1" width="51" height="51" rx="9.5" stroke="white"/>
</svg>
